<svg xmlns="http://www.w3.org/2000/svg" width="95.79" height="95.79" viewBox="0 0 95.79 95.79"><path d="M47.89,10.62c.85,3.33,2.24,4.83,5.17,5.8-2.93,1-4.32,2.46-5.17,5.79-.85-3.33-2.23-4.83-5.17-5.79,2.94-1,4.32-2.47,5.17-5.8m0-6.6c-1,10-1.87,11.07-9.72,12.4,7.85,1.32,8.69,2.39,9.72,12.39,1-10,1.88-11.07,9.72-12.39C49.77,15.09,48.93,14,47.89,4Z" fill="#fff"/><path d="M19.18,4c-1,10-1.88,11.07-9.72,12.4,7.84,1.32,8.68,2.39,9.72,12.39,1-10,1.88-11.07,9.72-12.39C21.06,15.09,20.22,14,19.18,4Z" fill="#fff"/><path d="M19.18,42.1c.85,3.32,2.23,4.83,5.17,5.79-2.94,1-4.32,2.47-5.17,5.8-.85-3.33-2.23-4.83-5.17-5.8,2.94-1,4.32-2.47,5.17-5.79m0-6.6c-1,10-1.88,11.07-9.72,12.39,7.84,1.32,8.68,2.4,9.72,12.4,1-10,1.88-11.08,9.72-12.4-7.84-1.32-8.68-2.39-9.72-12.39Z" fill="#fff"/><path d="M19.18,67c-1,10-1.88,11.07-9.72,12.39,7.84,1.32,8.68,2.39,9.72,12.39,1-10,1.88-11.07,9.72-12.39C21.06,78.05,20.22,77,19.18,67Z" fill="#fff"/><path d="M76.61,4c-1,10-1.88,11.07-9.73,12.4,7.85,1.32,8.69,2.39,9.73,12.39,1-10,1.87-11.07,9.72-12.39C78.48,15.09,77.64,14,76.61,4Z" fill="#fff"/><path d="M76.61,42.1c.84,3.32,2.23,4.83,5.17,5.79-2.94,1-4.33,2.47-5.17,5.8-.85-3.33-2.24-4.83-5.18-5.8,2.94-1,4.33-2.47,5.18-5.79m0-6.6c-1,10-1.88,11.07-9.73,12.39,7.85,1.32,8.69,2.4,9.73,12.4,1-10,1.87-11.08,9.72-12.4-7.85-1.32-8.69-2.39-9.72-12.39Z" fill="#fff"/><path d="M76.61,67c-1,10-1.88,11.07-9.73,12.39,7.85,1.32,8.69,2.39,9.73,12.39,1-10,1.87-11.07,9.72-12.39C78.48,78.05,77.64,77,76.61,67Z" fill="#fff"/><path d="M47.89,35.5c-1,10-1.87,11.07-9.72,12.39,7.85,1.32,8.69,2.4,9.72,12.4,1-10,1.88-11.08,9.72-12.4-7.84-1.32-8.68-2.39-9.72-12.39Z" fill="#fff"/><path d="M47.89,73.57c.85,3.33,2.24,4.84,5.17,5.8-2.93,1-4.32,2.47-5.17,5.8-.85-3.33-2.23-4.84-5.17-5.8,2.94-1,4.32-2.47,5.17-5.8m0-6.59c-1,10-1.87,11.07-9.72,12.39,7.85,1.32,8.69,2.39,9.72,12.39,1-10,1.88-11.07,9.72-12.39C49.77,78.05,48.93,77,47.89,67Z" fill="#fff"/><rect width="95.79" height="95.79" fill="none"/></svg>