<svg xmlns="http://www.w3.org/2000/svg" width="50.1" height="49.91" viewBox="0 0 50.1 49.91"><path d="M38.71,15.85a17,17,0,0,0-5.59,1.39,17.55,17.55,0,0,0,1.52-5.89c0-6-4.19-10.85-9.36-10.85s-9.37,4.86-9.37,10.85a16.61,16.61,0,0,0,1.4,5.57,17.75,17.75,0,0,0-5.92-1.52C5.38,15.4.5,19.58.5,24.73s4.88,9.34,10.89,9.34A17,17,0,0,0,17,32.67a17.61,17.61,0,0,0-1.52,5.89c0,6,4.19,10.85,9.37,10.85s9.37-4.85,9.37-10.85A16.85,16.85,0,0,0,32.8,33a17.65,17.65,0,0,0,5.91,1.52c6,0,10.89-4.18,10.89-9.33S44.73,15.85,38.71,15.85Z" fill="none" stroke="#fff" stroke-miterlimit="10"/><path d="M9,21.74a17.06,17.06,0,0,0,4.94,3,17.71,17.71,0,0,0-5.24,3.08C4.41,32,3.94,38.43,7.6,42.09S17.66,45.28,21.9,41a16.79,16.79,0,0,0,3-4.92A17.77,17.77,0,0,0,28,41.37c4.26,4.26,10.66,4.75,14.3,1.1s3.16-10-1.1-14.3a17.15,17.15,0,0,0-4.94-3,17.57,17.57,0,0,0,5.25-3.08c4.23-4.24,4.7-10.64,1-14.3s-10.06-3.19-14.29,1a16.65,16.65,0,0,0-2.95,4.93,17.84,17.84,0,0,0-3.11-5.26C17.9,4.29,11.49,3.79,7.85,7.44S4.7,17.49,9,21.74Z" fill="none" stroke="#fff" stroke-miterlimit="10"/></svg>