<svg width="163" height="208" viewBox="0 0 163 208" fill="none" xmlns="http://www.w3.org/2000/svg">
<path d="M44.0151 0C33.276 34.6163 24.3823 47.1133 0 62.4849C24.3823 77.8867 33.276 90.3534 44.0151 125C54.845 90.3534 63.527 77.8867 88 62.4849C63.527 47.1133 54.845 34.6163 44.0151 0Z" fill="white"/>
<path d="M134.485 42C127.462 69.0279 121.771 78.5777 106 90.5C121.771 102.512 127.462 112.152 134.485 139C141.508 112.152 147.259 102.452 163 90.5C147.199 78.4876 141.508 68.8777 134.485 42Z" fill="white"/>
<path d="M106.49 144C101.931 161.833 98.2374 168.134 88 176C98.2374 183.926 101.931 190.286 106.49 208C111.049 190.286 114.782 183.886 125 176C114.743 168.074 111.049 161.734 106.49 144Z" fill="white"/>
</svg>
