<svg width="349" height="373" viewBox="0 0 349 373" fill="none" xmlns="http://www.w3.org/2000/svg">
<path opacity="0.5" d="M174.532 186.5C174.532 -146.539 257.693 42.3002 174.532 186.5ZM174.532 186.5C257.693 42.3002 462.812 20.0234 174.532 186.5ZM174.532 186.5C340.939 186.5 462.812 20.0234 174.532 186.5ZM174.532 186.5C340.939 186.5 462.812 353.062 174.532 186.5ZM174.532 186.5C257.693 330.7 462.812 353.062 174.532 186.5ZM174.532 186.5C174.532 519.539 257.693 330.7 174.532 186.5ZM174.532 186.5C91.2849 330.7 174.532 519.539 174.532 186.5ZM174.532 186.5C-113.834 353.062 91.2849 330.7 174.532 186.5ZM174.532 186.5C-113.834 353.062 8.03825 186.5 174.532 186.5ZM174.532 186.5C-113.834 20.0234 8.03825 186.5 174.532 186.5ZM174.532 186.5C-113.834 20.0234 91.2849 42.3002 174.532 186.5ZM174.532 186.5C90.9423 42.3002 174.532 -146.539 174.532 186.5Z" stroke="white" stroke-miterlimit="10"/>
</svg>
