<svg width="182" height="194" viewBox="0 0 182 194" fill="none" xmlns="http://www.w3.org/2000/svg">
<path d="M91.0164 97C91.0164 -75.3544 134.155 22.3737 91.0164 97ZM91.0164 97C134.155 22.3737 240.557 10.845 91.0164 97ZM91.0164 97C177.337 97 240.557 10.845 91.0164 97ZM91.0164 97C177.337 97 240.557 183.199 91.0164 97ZM91.0164 97C134.155 171.626 240.557 183.199 91.0164 97ZM91.0164 97C91.0164 269.354 134.155 171.626 91.0164 97ZM91.0164 97C47.8337 171.626 91.0164 269.354 91.0164 97ZM91.0164 97C-58.5682 183.199 47.8337 171.626 91.0164 97ZM91.0164 97C-58.5682 183.199 4.65098 97 91.0164 97ZM91.0164 97C-58.5682 10.845 4.65098 97 91.0164 97ZM91.0164 97C-58.5682 10.845 47.8337 22.3737 91.0164 97ZM91.0164 97C47.656 22.3737 91.0164 -75.3544 91.0164 97Z" stroke="white" stroke-miterlimit="10"/>
</svg>
