<?xml version="1.0" encoding="utf-8"?>
<!-- Generator: Adobe Illustrator 25.4.1, SVG Export Plug-In . SVG Version: 6.00 Build 0)  -->
<svg version="1.1" id="Layer_1" xmlns="http://www.w3.org/2000/svg" xmlns:xlink="http://www.w3.org/1999/xlink" x="0px" y="0px"
	 width="800px" height="800px" viewBox="0 0 800 800" style="enable-background:new 0 0 800 800;" xml:space="preserve">
<style type="text/css">
	.st0{fill-rule:evenodd;clip-rule:evenodd;fill:#333333;}
</style>
<g id="SVGRepo_bgCarrier">
</g>
<g id="SVGRepo_tracerCarrier">
</g>
<path class="st0" d="M733.3,425.7c0-0.7,0-1.3,0-2c0-2.7,0-5.3,0-7.9c0-0.2,0-0.4,0-0.6c0-2.4,0-4.8,0-7.1c0-0.5,0-1.1,0-1.6
	c0-2.5,0-5,0-7.4c0-0.3,0-0.7,0-1c0-2.2,0-4.3,0-6.5c0-0.5,0-1,0-1.5c0-2.4,0-4.7,0-7c0-0.4,0-0.8,0-1.2c0-2.1,0-4.2-0.1-6.2
	c0-0.4,0-0.7,0-1.1c0-2.3-0.1-4.5-0.1-6.7c0-0.4,0-0.8,0-1.2c0-2.1-0.1-4.1-0.1-6.2c0-0.2,0-0.4,0-0.6c0-2.2-0.1-4.3-0.1-6.5
	c0-0.4,0-0.8,0-1.2c-0.1-4.3-0.2-8.5-0.4-12.6c0-0.4,0-0.7,0-1.1c-0.1-4.1-0.3-8.1-0.5-12c0-0.3,0-0.6,0-0.8c-0.1-2-0.2-3.9-0.3-5.9
	c0,0,0-0.1,0-0.1c-0.1-1.9-0.2-3.8-0.4-5.6c0-0.1,0-0.3,0-0.4c0,0,0,0,0,0c-3.6-51-12.8-84-36.8-108c-36.9-36.9-95-38.9-207.2-39
	c0,0,0,0,0,0c-0.7,0-1.4,0-2.1,0c-0.6,0-1.2,0-1.9,0c-1.2,0-2.5,0-3.7,0c-0.6,0-1.2,0-1.8,0c-1.1,0-2.1,0-3.2,0c-2.6,0-5.1,0-7.8,0
	H333.3c-2.6,0-5.2,0-7.8,0c-1.1,0-2.2,0-3.2,0c-0.6,0-1.2,0-1.8,0c-1.2,0-2.5,0-3.7,0c-0.6,0-1.2,0-1.9,0c-0.7,0-1.4,0-2.1,0
	c0,0,0,0,0,0c-112.2,0.1-170.4,2.2-207.2,39c-24,24-33.2,57-36.8,108c0,0,0,0,0,0c0,0.1,0,0.3,0,0.4c-0.1,1.9-0.3,3.7-0.4,5.6
	c0,0,0,0.1,0,0.1c-0.1,1.9-0.2,3.9-0.3,5.9c0,0.3,0,0.6,0,0.9c-0.2,3.9-0.4,7.9-0.5,12c0,0.4,0,0.7,0,1.1c-0.1,4.1-0.3,8.3-0.4,12.6
	c0,0.4,0,0.8,0,1.2c0,2.1-0.1,4.3-0.1,6.5c0,0.2,0,0.4,0,0.6c0,2-0.1,4.1-0.1,6.2c0,0.4,0,0.8,0,1.2c0,2.2-0.1,4.4-0.1,6.7
	c0,0.4,0,0.7,0,1.1c0,2,0,4.1-0.1,6.1c0,0.4,0,0.8,0,1.3c0,2.3,0,4.6,0,7c0,0.5,0,1,0,1.5c0,2.1,0,4.3,0,6.5c0,0.3,0,0.7,0,1
	c0,2.5,0,4.9,0,7.4c0,0.5,0,1.1,0,1.6c0,2.4,0,4.7,0,7.1c0,0.2,0,0.4,0,0.6c0,2.6,0,5.2,0,7.9c0,0.7,0,1.3,0,2c0,2.5,0,5.1,0,7.7
	c0,23.6,0,44.9,0.3,64.3c1.1,84.1,7.1,131.5,38.8,163.3c7.9,7.9,16.8,14.3,27.1,19.3c14.9,7.4,32.7,12,54.2,14.9
	c36.3,4.9,83.4,4.9,146.3,4.9h133.3c62.9,0,110,0,146.3-4.9c2.3-0.3,4.5-0.6,6.7-1c17.5-2.8,32.3-6.8,45.2-12.8
	c1.6-0.7,3.2-1.5,4.7-2.3c9.3-4.8,17.4-10.8,24.7-18.1c28.1-28.1,36-68.4,38.2-135.6c0-1.5,0.1-2.9,0.1-4.4
	c0.2-7.4,0.4-15.2,0.5-23.3c0.3-19.4,0.3-40.8,0.3-64.3C733.3,430.7,733.3,428.2,733.3,425.7z M413.6,460.6
	c-4.4,0.6-8.9,0.9-13.6,0.9c-9.3,0-18.1-1.3-26.6-3.6c-14.2-3.9-27.8-10.7-41.5-19.5c-4.4-2.8-8.9-6-13.6-9.3
	c-17.8-12.8-37.6-29.4-61-48.8l-73.2-61c-10.6-8.8-12-24.6-3.2-35.2c8.8-10.6,24.6-12,35.2-3.2l58.7,48.9l13.2,11
	c15.5,13,28.7,23.9,40.3,33.1c7.2,5.7,13.8,10.8,20,15.2c3.7,2.6,7.2,5.1,10.6,7.3c17.6,11.4,29.6,15.2,41.1,15.2
	s23.5-3.8,41.1-15.2c3.4-2.2,7-4.6,10.6-7.3c6.2-4.4,12.8-9.5,20-15.2c11.6-9.2,24.7-20.2,40.3-33.1l14.1-11.7l57.9-48.2
	c10.6-8.8,26.4-7.4,35.2,3.2c8.8,10.6,7.4,26.4-3.2,35.2l-73.2,61c-22.8,19-42.2,35.2-59.6,47.8c-5.2,3.8-10.2,7.2-15,10.3
	C450.3,449.9,432.8,458,413.6,460.6z"/>
</svg>
