<svg width="259" height="259" viewBox="0 0 259 259" fill="none" xmlns="http://www.w3.org/2000/svg">
<path d="M129.486 28.7148C131.785 37.7186 135.543 41.7743 143.465 44.397C135.543 47.1008 131.785 51.0484 129.486 60.0522C127.188 51.0484 123.457 46.9927 115.508 44.397C123.457 41.6932 127.188 37.7186 129.486 28.7148ZM129.486 10.8695C126.782 37.9078 124.43 40.8009 103.205 44.397C124.43 47.9661 126.701 50.8592 129.486 77.8975C132.19 50.8592 134.57 47.9661 155.768 44.397C134.57 40.8009 132.298 37.8537 129.486 10.8154V10.8695Z" fill="white"/>
<path d="M51.8594 10.8154C49.1555 37.8537 46.7762 40.7468 25.5781 44.3429C46.7762 47.912 49.0474 50.8051 51.8594 77.8434C54.5632 50.8051 56.9426 47.912 78.1406 44.3429C56.9426 40.8009 54.6714 37.8537 51.8594 10.8154Z" fill="white"/>
<path d="M51.8594 113.831C54.1576 122.808 57.8889 126.891 65.8382 129.486C57.8889 132.19 54.1576 136.165 51.8594 145.169C49.5611 136.165 45.8298 132.109 37.8806 129.486C45.8298 126.782 49.5611 122.808 51.8594 113.831ZM51.8594 95.9858C49.1555 123.024 46.7762 125.917 25.5781 129.486C46.7762 133.055 49.0474 135.976 51.8594 163.014C54.5632 135.976 56.9426 133.055 78.1406 129.486C56.9426 125.917 54.6714 123.024 51.8594 95.9858Z" fill="white"/>
<path d="M51.8594 181.157C49.1555 208.195 46.7762 211.088 25.5781 214.657C46.7762 218.226 49.0474 221.119 51.8594 248.158C54.5632 221.119 56.9426 218.226 78.1406 214.657C56.9426 211.034 54.6714 208.195 51.8594 181.157Z" fill="white"/>
<path d="M207.14 10.8154C204.436 37.8537 202.057 40.7468 180.832 44.3429C202.057 47.912 204.328 50.8051 207.14 77.8434C209.844 50.8051 212.196 47.912 233.422 44.3429C212.196 40.8009 209.925 37.8537 207.14 10.8154Z" fill="white"/>
<path d="M207.14 113.831C209.412 122.808 213.17 126.891 221.119 129.486C213.17 132.19 209.412 136.165 207.14 145.169C204.842 136.165 201.084 132.109 193.134 129.486C201.084 126.782 204.842 122.808 207.14 113.831ZM207.14 95.9858C204.436 123.024 202.057 125.917 180.832 129.486C202.057 133.055 204.328 135.976 207.14 163.014C209.844 135.976 212.196 133.055 233.422 129.486C212.196 125.917 209.925 123.024 207.14 95.9858Z" fill="white"/>
<path d="M207.14 181.157C204.436 208.195 202.057 211.088 180.832 214.657C202.057 218.226 204.328 221.119 207.14 248.158C209.844 221.119 212.196 218.226 233.422 214.657C212.196 211.034 209.925 208.195 207.14 181.157Z" fill="white"/>
<path d="M129.486 95.9858C126.782 123.024 124.43 125.917 103.205 129.486C124.43 133.055 126.701 135.976 129.486 163.014C132.19 135.976 134.57 133.055 155.768 129.486C134.57 125.917 132.298 123.024 129.486 95.9858Z" fill="white"/>
<path d="M129.486 198.921C131.785 207.925 135.543 212.007 143.465 214.603C135.543 217.307 131.785 221.281 129.486 230.285C127.188 221.281 123.457 217.199 115.508 214.603C123.457 211.899 127.188 207.925 129.486 198.921ZM129.486 181.103C126.782 208.141 124.43 211.034 103.205 214.603C124.43 218.172 126.701 221.065 129.486 248.103C132.19 221.065 134.57 218.172 155.768 214.603C134.57 211.034 132.298 208.195 129.486 181.157V181.103Z" fill="white"/>
</svg>
