<svg width="64" height="64" viewBox="0 0 64 64" fill="none" xmlns="http://www.w3.org/2000/svg">
<path d="M17.2418 27.2128V20.8128C17.2399 20.6016 17.287 20.3922 17.3805 20.1966C17.4741 20.001 17.6122 19.8231 17.7869 19.6731C17.9616 19.5232 18.1694 19.4042 18.3983 19.323C18.6273 19.2418 18.8729 19.2 19.1209 19.2C19.6193 19.2 20.0972 19.0314 20.4496 18.7314C20.802 18.4313 21 18.0243 21 17.6C21 17.1757 20.802 16.7687 20.4496 16.4686C20.0972 16.1686 19.6193 16 19.1209 16C17.6258 16 16.192 16.5057 15.1348 17.4059C14.0776 18.3061 13.4837 19.527 13.4837 20.8V27.2C13.4837 28.0487 13.0877 28.8626 12.383 29.4627C11.6782 30.0629 10.7223 30.4 9.72554 30.4C9.25425 30.4359 8.81579 30.6206 8.49644 30.9179C8.1771 31.2152 8 31.6035 8 32.0064C8 32.4093 8.1771 32.7976 8.49644 33.0949C8.81579 33.3922 9.25425 33.5769 9.72554 33.6128C10.7223 33.6128 11.6782 33.9499 12.383 34.5501C13.0877 35.1502 13.4837 35.9641 13.4837 36.8128V43.2128C13.4877 44.4836 14.0833 45.7012 15.1401 46.5986C16.1969 47.496 17.6284 48 19.1209 48C19.6193 48 20.0972 47.8314 20.4496 47.5314C20.802 47.2313 21 46.8243 21 46.4C21 45.9757 20.802 45.5687 20.4496 45.2686C20.0972 44.9686 19.6193 44.8 19.1209 44.8C18.6238 44.7967 18.1481 44.627 17.7966 44.3277C17.445 44.0283 17.2458 43.6233 17.2418 43.2V36.8C17.229 35.8886 16.9877 34.99 16.534 34.1644C16.0803 33.3388 15.4247 32.6052 14.6111 32.0128C15.4266 31.419 16.0833 30.6834 16.5371 29.8554C16.9908 29.0275 17.2311 28.1264 17.2418 27.2128Z" fill="white"/>
<path d="M54.2765 30.407C53.2809 30.407 52.3261 30.07 51.6221 29.4702C50.9181 28.8703 50.5226 28.0567 50.5226 27.2083V20.8109C50.5226 20.1791 50.3766 19.5535 50.0929 18.9698C49.8092 18.3862 49.3933 17.8558 48.869 17.4091C48.3448 16.9623 47.7224 16.608 47.0374 16.3662C46.3525 16.1244 45.6183 16 44.8769 16C44.3791 16 43.9017 16.1685 43.5497 16.4684C43.1977 16.7684 43 17.1752 43 17.5994C43 18.0235 43.1977 18.4303 43.5497 18.7303C43.9017 19.0302 44.3791 19.1987 44.8769 19.1987C45.1246 19.197 45.3703 19.2372 45.5998 19.3168C45.8292 19.3964 46.0379 19.5139 46.2138 19.6626C46.3897 19.8113 46.5293 19.9882 46.6245 20.1831C46.7198 20.3779 46.7688 20.587 46.7688 20.7981V27.1955C46.7689 28.1078 47.0012 29.0092 47.4496 29.8375C47.8981 30.6659 48.5521 31.4015 49.3665 31.9936C48.5555 32.591 47.9041 33.3294 47.456 34.1593C47.008 34.9891 46.7737 35.891 46.7688 36.8045V43.2019C46.7649 43.6273 46.5638 44.034 46.2094 44.3336C45.855 44.6332 45.3761 44.8013 44.8769 44.8013C44.3791 44.8013 43.9017 44.9698 43.5497 45.2697C43.1977 45.5697 43 45.9765 43 46.4006C43 46.8248 43.1977 47.2316 43.5497 47.5316C43.9017 47.8315 44.3791 48 44.8769 48C46.3717 48 47.8054 47.4949 48.8637 46.5955C49.9221 45.696 50.5187 44.4756 50.5226 43.2019V36.8045C50.5226 35.9561 50.9181 35.1425 51.6221 34.5426C52.3261 33.9428 53.2809 33.6058 54.2765 33.6058C54.7472 33.5699 55.1852 33.3852 55.5041 33.0881C55.8231 32.7909 56 32.4027 56 32C56 31.5973 55.8231 31.2091 55.5041 30.9119C55.1852 30.6148 54.7472 30.4301 54.2765 30.3942V30.407Z" fill="white"/>
</svg>
