<svg width="64" height="64" viewBox="0 0 64 64" fill="none" xmlns="http://www.w3.org/2000/svg">
<path d="M32.2041 40.3411L36.6136 37.7823C36.6844 37.8734 38.3936 40.1287 39.6477 40.6344C40.3463 40.9323 41.098 41.0859 41.8575 41.0859C42.617 41.0859 43.3687 40.9323 44.0673 40.6344C44.3723 40.5233 44.6519 40.3523 44.8896 40.1313C45.1274 39.9103 45.3183 39.6439 45.4513 39.3478C45.5842 39.0517 45.6565 38.732 45.6637 38.4075C45.6709 38.083 45.613 37.7604 45.4933 37.4587C45.316 36.9441 44.9562 36.5123 44.482 36.2451C43.6931 35.7798 42.8739 35.3652 42.0446 34.9606C40.7298 34.3235 39.3746 33.7571 38.07 33.0896C36.9759 32.5304 36.0218 31.7319 35.2786 30.7534C34.426 29.618 33.9266 28.2568 33.8425 26.8395C33.7014 25.5046 33.9215 24.1564 34.4797 22.9356C34.8792 22.0744 35.4574 21.3079 36.1757 20.6872C36.8941 20.0664 37.7363 19.6056 38.6464 19.3352C41.0733 18.4992 43.7293 18.6333 46.0597 19.7094C47.5592 20.4732 48.7722 21.7004 49.5185 23.2087L45.2911 25.9495L44.9169 25.373C44.6815 24.9641 44.3657 24.6072 43.9884 24.3239C43.6112 24.0405 43.1805 23.8366 42.7222 23.7245C42.118 23.5729 41.4857 23.5729 40.8815 23.7245C40.4949 23.843 40.145 24.0587 39.8654 24.3509C39.5858 24.6431 39.3857 25.0021 39.2843 25.3936C39.1828 25.7851 39.1834 26.1961 39.286 26.5873C39.3886 26.9785 39.5897 27.3369 39.8702 27.6283C40.4398 28.1481 41.0973 28.5625 41.812 28.8521C43.329 29.5499 44.8461 30.2073 46.3429 30.9456C47.4933 31.5116 48.5236 32.2946 49.3769 33.2515C50.4082 34.4538 51.0065 35.9672 51.076 37.5497C51.2125 38.8071 51.0496 40.079 50.6007 41.2614C50.2174 42.2137 49.629 43.0699 48.8774 43.7691C48.1258 44.4683 47.2294 44.9933 46.2518 45.3068C44.5619 45.8964 42.7645 46.1138 40.9827 45.944C39.229 45.8351 37.5236 45.3266 35.9967 44.4573C34.4595 43.5627 33.1995 42.2607 32.3558 40.695C32.2957 40.5814 32.245 40.463 32.2041 40.3411Z" fill="white"/>
<path d="M29.1805 36.5685C29.2484 38.3374 28.8173 40.0897 27.9365 41.6253C27.1917 42.8155 26.065 43.7176 24.7407 44.184C23.4855 44.6591 22.149 44.8822 20.8076 44.8406C19.4662 44.7989 18.1461 44.4933 16.9229 43.9413C15.1267 43.1305 13.6882 41.692 12.8774 39.8959L12.8774 39.7745L17.3173 37.0843C17.6084 37.6033 17.9469 38.0942 18.3287 38.5508C18.6365 38.9619 19.0345 39.297 19.4921 39.5302C19.9497 39.7634 20.4547 39.8885 20.9683 39.8959C21.3263 39.8946 21.6806 39.8221 22.0104 39.6827C22.3401 39.5432 22.6389 39.3396 22.8892 39.0836C23.1396 38.8276 23.3365 38.5243 23.4686 38.1915C23.6007 37.8587 23.6652 37.503 23.6585 37.145C23.8001 35.6077 23.7394 34.0502 23.7495 32.5029C23.7596 30.288 23.699 18 23.699 18H29.1906" fill="white"/>
</svg>
