<svg width="64" height="64" viewBox="0 0 64 64" fill="none" xmlns="http://www.w3.org/2000/svg">
<path opacity="0.6" d="M31.9946 12H25.4258C23.6836 12 22.0128 12.7022 20.7809 13.9521C19.549 15.202 18.8569 16.8973 18.8569 18.6649C18.8569 20.4326 19.549 22.1278 20.7809 23.3778C22.0128 24.6277 23.6836 25.3299 25.4258 25.3299H31.9946V12Z" fill="white"/>
<path opacity="0.4" d="M31.9946 25.3301H25.4257C23.7276 25.3989 22.1215 26.1317 20.944 27.3751C19.7665 28.6185 19.1089 30.276 19.1089 32.0003C19.1089 33.7247 19.7665 35.3822 20.944 36.6256C22.1215 37.869 23.7276 38.6018 25.4257 38.6706H31.9946V25.3301Z" fill="white"/>
<path d="M45.143 32.0057C45.143 33.3264 44.7569 34.6175 44.0335 35.7155C43.3101 36.8135 42.2819 37.6691 41.0791 38.1741C39.8763 38.679 38.5528 38.8106 37.2763 38.5522C35.9997 38.2937 34.8274 37.6569 33.9077 36.7222C32.988 35.7876 32.3622 34.5971 32.1095 33.3015C31.8568 32.0058 31.9886 30.6633 32.4882 29.4437C32.9878 28.224 33.8327 27.1822 34.9161 26.45C35.9994 25.7177 37.2725 25.328 38.5742 25.3301C39.4377 25.3301 40.2927 25.5028 41.0904 25.8384C41.8881 26.174 42.6127 26.6659 43.2228 27.286C43.8329 27.906 44.3165 28.642 44.646 29.4518C44.9755 30.2617 45.1444 31.1295 45.143 32.0057Z" fill="white"/>
<path opacity="0.2" d="M25.4258 38.6699H31.9946V45.3349C31.9946 46.6531 31.6094 47.9417 30.8876 49.0377C30.1658 50.1338 29.1399 50.988 27.9396 51.4925C26.7393 51.9969 25.4185 52.1289 24.1443 51.8717C22.87 51.6146 21.6996 50.9798 20.7809 50.0477C19.8622 49.1156 19.2366 47.928 18.9832 46.6351C18.7297 45.3423 18.8598 44.0022 19.357 42.7843C19.8541 41.5664 20.6961 40.5255 21.7763 39.7932C22.8566 39.0608 24.1266 38.6699 25.4258 38.6699Z" fill="white"/>
<path opacity="0.8" d="M31.9941 12H38.5735C40.3156 12 41.9865 12.7022 43.2184 13.9521C44.4503 15.202 45.1423 16.8973 45.1423 18.6649C45.1423 20.4326 44.4503 22.1278 43.2184 23.3778C41.9865 24.6277 40.3156 25.3299 38.5735 25.3299H31.9941V12Z" fill="white"/>
</svg>
