<svg width="350" height="349" viewBox="0 0 350 349" fill="none" xmlns="http://www.w3.org/2000/svg">
<path opacity="0.5" d="M271.816 109.609C258.146 110.615 244.747 113.947 232.197 119.46C238.19 106.278 241.836 92.1507 242.97 77.7144C242.97 35.189 213.273 0.814209 176.63 0.814209C139.987 0.814209 110.22 35.2598 110.22 77.7144C111.21 91.35 114.567 104.709 120.142 117.192C106.884 111.202 92.6876 107.557 78.1837 106.419C35.5874 106.419 1 136.045 1 172.546C1 209.047 35.5874 238.744 78.1837 238.744C91.9069 237.731 105.355 234.375 117.945 228.822C111.96 242.007 108.314 256.133 107.172 270.567C107.172 313.093 136.869 347.468 173.582 347.468C210.296 347.468 239.993 313.093 239.993 270.567C238.916 256.953 235.512 243.624 229.929 231.16C243.16 237.156 257.334 240.802 271.816 241.934C314.342 241.934 349 212.307 349 175.806C349 139.305 314.484 109.609 271.816 109.609Z" stroke="white" stroke-width="1.5" stroke-miterlimit="10"/>
<path opacity="0.8" d="M61.2438 151.354C71.6205 160.381 83.4612 167.572 96.2564 172.616C82.7113 177.698 70.1467 185.084 59.1175 194.446C28.7118 224.072 25.3807 269.645 51.3212 295.586C77.2617 321.526 122.622 318.195 152.674 287.86C161.718 277.549 168.911 265.752 173.936 252.99C179.032 266.666 186.467 279.352 195.908 290.483C226.101 320.676 271.461 324.149 297.26 298.279C323.059 272.409 319.657 227.403 289.464 196.927C279.08 187.91 267.241 180.72 254.451 175.664C268.03 170.608 280.622 163.22 291.661 153.834C321.641 123.783 324.972 78.4225 298.748 52.482C272.524 26.5414 227.447 29.8726 197.467 59.5695C188.526 69.9173 181.451 81.7405 176.559 94.5113C171.41 80.9092 163.953 68.2973 154.516 57.2307C124.323 27.6755 78.8919 24.1317 53.0931 50.0013C27.2943 75.871 30.7672 121.231 61.2438 151.354Z" stroke="white" stroke-width="1.5" stroke-miterlimit="10"/>
</svg>
