<svg width="64" height="64" viewBox="0 0 64 64" fill="none" xmlns="http://www.w3.org/2000/svg">
<path d="M20.8613 19.6346C20.6895 19.4623 20.4854 19.3256 20.2606 19.2324C20.0359 19.1391 19.7949 19.0911 19.5516 19.0911C19.3083 19.0911 19.0673 19.1391 18.8426 19.2324C18.6178 19.3256 18.4137 19.4623 18.2419 19.6346L7.16661 30.7214C6.99466 30.8922 6.8582 31.0954 6.76508 31.3192C6.67196 31.543 6.62402 31.783 6.62402 32.0254C6.62402 32.2678 6.67196 32.5078 6.76508 32.7316C6.8582 32.9553 6.99466 33.1585 7.16661 33.3294L18.2419 44.3702C18.5904 44.7153 19.0611 44.909 19.5516 44.909C20.0421 44.909 20.5128 44.7153 20.8613 44.3702C21.2031 44.0221 21.3945 43.5539 21.3945 43.0662C21.3945 42.5784 21.2031 42.1102 20.8613 41.7622L11.0843 31.9852L20.8613 22.2081C21.1928 21.8617 21.3778 21.4008 21.3778 20.9214C21.3778 20.442 21.1928 19.981 20.8613 19.6346Z" fill="white"/>
<path d="M56.8509 30.6219L45.7642 19.5352C45.4103 19.2324 44.9552 19.0744 44.4899 19.0925C44.0245 19.1106 43.5832 19.3035 43.2539 19.6328C42.9246 19.9621 42.7316 20.4035 42.7135 20.8689C42.6954 21.3342 42.8535 21.7892 43.1562 22.1431L52.9332 31.9202L43.1562 41.6972C42.9007 41.9565 42.7274 42.2854 42.658 42.6427C42.5886 43 42.6261 43.3699 42.7659 43.706C42.9058 44.0421 43.1417 44.3294 43.4441 44.5321C43.7464 44.7347 44.1019 44.8436 44.4659 44.8451C44.71 44.8428 44.9511 44.7907 45.1743 44.6919C45.3976 44.5932 45.5983 44.4498 45.7642 44.2707L56.8509 33.1954C57.1877 32.8518 57.3764 32.3898 57.3764 31.9087C57.3764 31.4275 57.1877 30.9655 56.8509 30.6219Z" fill="white"/>
<path d="M29 42.0002L39 21.0002" stroke="white" stroke-opacity="0.5" stroke-width="4" stroke-linecap="round"/>
</svg>
