<svg width="65" height="64" viewBox="0 0 65 64" fill="none" xmlns="http://www.w3.org/2000/svg">
<path d="M35.1026 46.8098L33.0856 40.1794H22.9114L20.8944 46.8098H14.5537L24.3712 18.8505H31.4475L41.2984 46.8098H35.1026ZM31.5589 35.2205C29.6756 29.2363 28.6504 25.8375 28.4052 25.0575C28.1601 24.2774 28.0152 23.6422 27.9261 23.1742C27.5026 24.8012 26.2991 28.8463 24.3935 35.2205H31.5589Z" fill="white"/>
<path d="M44.2402 20.0205C44.2402 18.1484 45.2989 17.1901 47.3939 17.1901C49.4889 17.1901 50.5475 18.1484 50.5475 20.0205C50.5734 20.4051 50.5172 20.7907 50.3828 21.1519C50.2483 21.5131 50.0385 21.8416 49.7675 22.1155C49.4427 22.3955 49.0659 22.6086 48.6585 22.7425C48.2512 22.8763 47.8214 22.9284 47.3939 22.8956C45.2989 22.8956 44.2402 21.9372 44.2402 20.0205ZM50.3024 46.7652H44.6414V25.5478H50.4472L50.3024 46.7652Z" fill="white"/>
</svg>
