<svg width="64" height="64" viewBox="0 0 64 64" fill="none" xmlns="http://www.w3.org/2000/svg">
<path d="M52.2509 32C52.2509 29.1524 48.9468 26.7512 43.6981 25.253C45.0475 20.0042 44.601 15.9858 42.1998 14.4479C41.585 14.1386 40.9035 13.9853 40.2154 14.0014C37.9631 14.0014 34.9666 15.6484 31.9702 18.506C28.9936 15.6484 26.1459 14.0014 23.7448 14.0014C23.0566 13.9836 22.3747 14.137 21.7604 14.4479C19.5478 15.9858 19.1013 20.0042 20.3018 25.253C15.2019 26.7512 11.749 29.3012 11.749 32C11.749 34.8476 15.0531 37.2488 20.3018 38.747C19.1013 43.9958 19.5478 48.2027 21.9489 49.5521C22.5632 49.863 23.2451 50.0164 23.9333 49.9986C26.1856 49.9986 29.192 48.3516 32.1885 45.5039C35.1651 48.3516 38.0326 49.9986 40.4337 49.9986C41.1218 50.0147 41.8033 49.8614 42.4181 49.5521C44.8192 48.2027 45.2657 43.9958 44.0652 38.747C48.9468 37.2488 52.2509 34.6988 52.2509 32ZM40.2452 15.9858C40.7016 15.9858 40.9993 15.9858 41.1481 16.2835C42.3487 16.8788 42.7951 19.2601 42.3487 22.4351C42.1998 23.1793 42.051 24.0822 41.8922 24.8264C40.1607 24.4311 38.4083 24.1329 36.6435 23.9334C35.6723 22.4763 34.5696 21.1113 33.3493 19.8554C36.0481 17.3054 38.5981 15.9858 40.2452 15.9858ZM37.5464 35.1453C36.9715 36.1926 36.3075 37.1884 35.562 38.1219C34.3656 38.2457 33.1627 38.2955 31.9603 38.2707C30.7578 38.2955 29.5549 38.2457 28.3585 38.1219C27.7533 37.219 27.158 36.1375 26.3741 35.1453C25.769 34.1272 25.2191 33.0773 24.7271 32C25.2427 30.9313 25.8157 29.8913 26.4436 28.8845C27.0488 27.8327 27.793 26.781 28.428 25.7293C29.6244 25.6054 30.8272 25.5557 32.0297 25.5804C33.2322 25.5557 34.4351 25.6054 35.6314 25.7293C36.3355 26.7397 36.9751 27.7935 37.5464 28.8845C38.1592 29.8982 38.7093 30.9486 39.1934 32.0298C38.7082 33.1008 38.1581 34.1412 37.5464 35.1453ZM40.2452 34.2523C40.7016 35.304 40.9993 36.3459 41.2969 37.2289C40.2622 37.4965 39.2117 37.6987 38.1516 37.8342C38.4493 37.2289 38.8958 36.6336 39.1934 36.0284C39.6335 35.4868 39.9882 34.8812 40.2452 34.2325V34.2523ZM31.9999 42.7754C31.217 41.9963 30.5124 41.1422 29.8965 40.2254H34.0935C33.4807 41.1417 32.7794 41.9958 31.9999 42.7754ZM25.8483 37.983C24.7742 37.8625 23.71 37.6669 22.6633 37.3976C22.9609 36.3459 23.4074 35.304 23.7051 34.421C24.0033 35.0488 24.3551 35.6497 24.7568 36.2169C25.1659 36.7828 25.5182 37.3877 25.8086 38.0227L25.8483 37.983ZM23.7448 29.7278C23.2983 28.6761 23.0006 27.6343 22.5442 26.5826C23.6283 26.2959 24.733 26.0935 25.8483 25.9773C25.4018 26.5826 25.0942 27.1779 24.6477 27.7831C24.5092 28.5011 24.1994 29.175 23.7448 29.7477V29.7278ZM31.9999 21.185C32.7441 21.9291 33.3493 22.832 34.0935 23.5762H29.8965C30.6386 22.823 31.3407 22.0315 31.9999 21.2048V21.185ZM39.1934 27.7831C38.7469 27.1779 38.4493 26.5826 37.9929 25.9773C39.1082 26.0935 40.2128 26.2959 41.2969 26.5826C40.9621 27.6548 40.5611 28.7052 40.0963 29.7278C39.8942 29.0443 39.5898 28.3954 39.1934 27.803V27.7831ZM21.8001 22.2466C21.3437 19.1013 21.8001 16.849 23.0006 16.1049C23.2716 15.9369 23.5767 15.8318 23.8936 15.7973C25.5506 15.7973 27.9517 17.1467 30.6505 19.6966C29.4747 20.9869 28.3716 22.3417 27.3465 23.7548C25.5737 23.895 23.8171 24.1939 22.0977 24.6478C21.9248 23.8582 21.8252 23.0545 21.8001 22.2466ZM18.496 36.0482C15.6484 34.8377 13.7334 33.2006 13.7334 32C13.7334 30.7994 15.5293 29.1524 18.377 27.9518C19.1469 27.6121 19.9522 27.3592 20.7781 27.1977C21.2367 28.9255 21.9031 30.5913 22.7625 32.1588C22.0509 33.7161 21.4475 35.3207 20.9567 36.961C20.0538 36.6634 19.3096 36.3558 18.5556 36.0581L18.496 36.0482ZM22.8518 47.8951C21.6711 47.2998 21.1948 44.8987 21.6711 41.7831C21.8199 41.0291 21.9687 40.1262 22.1176 39.2332C23.7646 39.5308 25.4216 39.8285 27.2175 39.9773C28.2451 41.3853 29.348 42.7367 30.5216 44.0255C27.8128 46.5755 25.4216 47.9249 23.7646 47.9249C23.467 48.0737 23.1693 47.9249 22.8717 47.9249L22.8518 47.8951ZM42.3487 41.7831C42.7951 44.9284 42.3487 47.1807 41.1481 47.9249C40.8736 48.093 40.5652 48.1981 40.2452 48.2325C38.5981 48.2325 36.197 46.8831 33.4982 44.3331C34.7171 43.0831 35.8196 41.7248 36.7923 40.275C38.5048 40.1221 40.2074 39.8737 41.8922 39.5308C42.051 40.1262 42.1998 40.8802 42.3487 41.7831ZM45.6428 36.078C44.8763 36.4176 44.0742 36.6706 43.2516 36.832C42.7563 35.1932 42.153 33.5889 41.4457 32.0298C42.1998 30.3827 42.7951 28.7257 43.4302 27.0687C44.1743 27.3664 45.0772 27.5252 45.8214 27.8228C48.6492 29.0035 50.4451 30.5018 50.4451 31.8611C50.4451 33.2204 48.4606 34.8377 45.6428 36.0581V36.078Z" fill="white"/>
<path d="M32.1487 35.7503C32.8905 35.7503 33.6156 35.5304 34.2324 35.1183C34.8492 34.7062 35.3299 34.1204 35.6137 33.4351C35.8976 32.7498 35.9719 31.9956 35.8272 31.2681C35.6825 30.5406 35.3253 29.8723 34.8007 29.3478C34.2762 28.8233 33.6079 28.4661 32.8804 28.3213C32.1529 28.1766 31.3988 28.2509 30.7134 28.5348C30.0281 28.8186 29.4424 29.2993 29.0302 29.9161C28.6181 30.5329 28.3982 31.258 28.3982 31.9998C28.3929 32.4938 28.4862 32.9839 28.6728 33.4413C28.8594 33.8988 29.1355 34.3143 29.4848 34.6637C29.8342 35.013 30.2497 35.2891 30.7072 35.4757C31.1646 35.6623 31.6547 35.7557 32.1487 35.7503Z" fill="white"/>
</svg>
