<svg width="64" height="64" viewBox="0 0 64 64" fill="none" xmlns="http://www.w3.org/2000/svg">
<path d="M49.1385 34.695C47.4826 34.7038 46.0435 35.1071 44.8384 35.7033C44.3963 34.8177 43.9541 34.0286 43.8761 33.4499C43.7894 32.7748 43.6854 32.3627 43.7894 31.556C43.8934 30.7494 44.3616 29.6007 44.3529 29.5131C44.3443 29.4254 44.2489 29.0133 43.2952 29.0045C42.3416 28.9957 41.518 29.1886 41.4226 29.4429C41.3273 29.6972 41.1452 30.2759 41.0238 30.8721C40.8591 31.7489 39.1165 34.8791 38.1195 36.5188C37.7988 35.8787 37.5213 35.3175 37.4606 34.8704C37.3739 34.1952 37.2699 33.7831 37.3739 32.9764C37.478 32.1698 37.9461 31.0212 37.9375 30.9335C37.9288 30.8458 37.8334 30.4337 36.8798 30.4249C35.9261 30.4162 35.1025 30.6091 35.0072 30.8633C34.9118 31.1176 34.8078 31.7138 34.6084 32.2925C34.409 32.8712 32.0942 38.097 31.4873 39.4473C31.1752 40.14 30.9065 40.6924 30.7157 41.0694C30.7157 41.0694 30.7071 41.0957 30.6811 41.1395C30.5164 41.464 30.421 41.6393 30.421 41.6393C30.421 41.6393 30.421 41.6393 30.421 41.6481C30.2909 41.8848 30.1522 42.104 30.0829 42.104C30.0309 42.104 29.9355 41.4727 30.1002 40.6135C30.447 38.7985 31.2706 35.9751 31.2619 35.8787C31.2619 35.8261 31.418 35.3351 30.7244 35.0808C30.0482 34.8265 29.8054 35.2474 29.7448 35.2474C29.6841 35.2474 29.6407 35.3964 29.6407 35.3964C29.6407 35.3964 30.395 32.2224 28.2016 32.2224C26.8318 32.2224 24.9418 33.7393 24.0055 35.1071C23.416 35.4315 22.1589 36.1242 20.8151 36.8695C20.3036 37.1588 19.7748 37.4482 19.2806 37.72C19.246 37.6849 19.2113 37.6411 19.1766 37.606C16.5237 34.7388 11.6168 32.7134 11.8248 28.8642C11.9029 27.4613 12.3797 23.7787 21.2486 19.307C28.5484 15.6682 34.357 16.6766 35.3626 18.9124C36.8018 22.104 32.2503 28.0313 24.7078 28.8905C21.8295 29.2149 20.321 28.0926 19.9395 27.6718C19.5407 27.2334 19.48 27.2071 19.3327 27.2947C19.0899 27.4263 19.246 27.8208 19.3327 28.0488C19.5581 28.645 20.4857 29.6972 22.0549 30.2145C23.442 30.6704 26.8145 30.9247 30.8978 29.3289C35.4667 27.5402 39.0385 22.5687 37.9895 18.4039C36.9405 14.1777 30.0048 12.7835 23.442 15.1422C19.5407 16.5451 15.31 18.7546 12.267 21.6305C8.6518 25.0501 8.07961 28.0225 8.31369 29.2676C9.15463 33.6867 15.18 36.5626 17.5901 38.6932C17.4687 38.7634 17.356 38.8248 17.2606 38.8774C16.0556 39.4824 11.4607 41.9111 10.3163 44.4802C9.01592 47.3912 10.5244 49.478 11.5214 49.7586C14.6164 50.6266 17.7982 49.0659 19.506 46.4881C21.2139 43.9103 21.0059 40.5608 20.217 39.0264C20.2083 39.0089 20.1996 38.9914 20.1823 38.9738C20.4944 38.7897 20.8151 38.5968 21.1273 38.4127C21.7428 38.0444 22.3497 37.7024 22.8698 37.4219C22.5751 38.2373 22.3583 39.2106 22.2543 40.6135C22.1242 42.2619 22.7918 44.4013 23.6674 45.243C24.0576 45.6113 24.517 45.62 24.8118 45.62C25.8348 45.62 26.2943 44.7608 26.8058 43.7437C27.43 42.4986 27.9935 41.0519 27.9935 41.0519C27.9935 41.0519 27.2913 44.9624 29.1986 44.9624C29.8921 44.9624 30.5944 44.0505 30.9065 43.5858C30.9065 43.5946 30.9065 43.5946 30.9065 43.5946C30.9065 43.5946 30.9238 43.5683 30.9585 43.5069C31.0279 43.3929 31.0712 43.3228 31.0712 43.3228C31.0712 43.3228 31.0712 43.314 31.0712 43.3053C31.3486 42.8142 31.9728 41.7007 32.9005 39.8506C34.0969 37.4657 35.2499 34.4846 35.2499 34.4846C35.2499 34.4846 35.3539 35.2123 35.7094 36.4223C35.9175 37.1325 36.3509 37.9129 36.6977 38.6669C36.4203 39.0615 36.2469 39.2807 36.2469 39.2807C36.2469 39.2807 36.2469 39.2807 36.2556 39.2895C36.0302 39.5876 35.7874 39.912 35.5187 40.2277C34.5737 41.3675 33.4467 42.674 33.2906 43.051C33.1085 43.4982 33.1519 43.8226 33.4987 44.0856C33.7501 44.2785 34.2009 44.3048 34.6604 44.2785C35.51 44.2171 36.1082 44.0067 36.403 43.8752C36.8624 43.7086 37.4 43.4543 37.9028 43.0773C38.8304 42.3846 39.3939 41.3938 39.3419 40.0874C39.3159 39.3684 39.0818 38.6494 38.7958 37.9743C38.8824 37.8515 38.9605 37.7288 39.0472 37.606C40.5123 35.4403 41.648 33.0641 41.648 33.0641C41.648 33.0641 41.7521 33.7919 42.1075 35.0019C42.2809 35.6156 42.6364 36.282 42.9485 36.9309C41.57 38.0619 40.7204 39.3772 40.417 40.2364C39.8708 41.8322 40.2956 42.5512 41.1018 42.7178C41.466 42.7967 41.9861 42.6213 42.3676 42.4547C42.8531 42.2969 43.4253 42.0251 43.9715 41.6218C44.8991 40.9291 45.7921 39.9646 45.74 38.6582C45.714 38.0619 45.558 37.4745 45.3412 36.9046C46.5116 36.4135 48.0201 36.1417 49.9448 36.3697C54.0715 36.8607 54.8864 39.4648 54.7304 40.5608C54.5743 41.6569 53.7073 42.2531 53.4212 42.4372C53.1352 42.6213 53.0398 42.6827 53.0658 42.8142C53.1005 43.0071 53.2392 42.9984 53.4819 42.9633C53.82 42.9019 55.6493 42.0777 55.7273 40.0611C55.8574 37.4832 53.4299 34.6687 49.1385 34.695ZM17.304 45.5499C15.9342 47.058 14.0269 47.6279 13.2033 47.1457C12.319 46.6284 12.6658 44.4013 14.3477 42.8055C15.3707 41.8322 16.6885 40.9291 17.5641 40.3767C17.7635 40.254 18.0582 40.0786 18.4137 39.8594C18.4744 39.8243 18.5091 39.8068 18.5091 39.8068C18.5784 39.7629 18.6478 39.7191 18.7171 39.6753C19.3327 41.955 18.7431 43.9629 17.304 45.5499ZM27.2739 38.6932C26.7971 39.8682 25.8001 42.8756 25.1933 42.709C24.6731 42.5687 24.3523 40.289 25.0892 38.0356C25.462 36.9046 26.2509 35.5543 26.7104 35.0282C27.456 34.1864 28.2796 33.9059 28.479 34.2478C28.7304 34.695 27.5687 37.9567 27.2739 38.6932ZM35.5013 42.674C35.3019 42.7792 35.1112 42.8493 35.0245 42.7967C34.9638 42.7616 35.1112 42.6213 35.1112 42.6213C35.1112 42.6213 36.1429 41.499 36.5503 40.9905C36.7844 40.6924 37.0618 40.3416 37.3566 39.9471C37.3566 39.9821 37.3566 40.026 37.3566 40.0611C37.3566 41.4026 36.0735 42.3057 35.5013 42.674ZM41.8474 41.2097C41.7 41.1045 41.7261 40.7537 42.2202 39.6577C42.4109 39.2281 42.8618 38.5091 43.6333 37.8164C43.72 38.097 43.7807 38.3688 43.7721 38.6231C43.7634 40.3153 42.567 40.9466 41.8474 41.2097Z" fill="white"/>
</svg>
