<svg width="64" height="64" viewBox="0 0 64 64" fill="none" xmlns="http://www.w3.org/2000/svg">
<path fill-rule="evenodd" clip-rule="evenodd" d="M49.3467 40.7107L49.1947 41.1344C46.4247 46.5656 41.504 49.8243 34.476 49.9981C31.5756 50.0363 28.6997 49.4626 26.0359 48.3145C21.7131 46.3144 18.1647 42.9529 15.9338 38.7446C13.0335 33.1287 12.5013 25.3186 18.5408 19.4855C18.6277 19.4855 17.8021 20.7455 17.8999 20.7455L17.737 21.2886C13.392 34.8885 26.7745 46.5547 39.7878 45.1861C43.3711 44.7335 46.7182 43.1551 49.3467 40.6781" fill="white"/>
<path fill-rule="evenodd" clip-rule="evenodd" d="M41.4716 35.0951C44.7365 35.0628 47.8577 33.748 50.1616 31.4344C48.391 35.9315 43.2639 38.8209 36.3771 37.9519C30.62 37.1807 25.1345 31.3801 24.5696 25.5687C24.1569 21.3432 25.6559 18.8231 28.0565 15.7925C27.4439 16.8924 27.0424 18.0971 26.8725 19.3445C25.9492 28.4798 34.1721 35.0408 41.4934 35.0951" fill="white"/>
<path fill-rule="evenodd" clip-rule="evenodd" d="M49.8677 23.7545C48.6819 25.41 47.0346 26.6794 45.1316 27.4043C43.2274 27.9222 41.2057 27.801 39.377 27.0593C37.5482 26.3176 36.0133 24.9963 35.0078 23.2983C34.6882 22.7126 34.4158 22.1023 34.1931 21.4734C33.5305 19.2031 33.8347 15.7706 35.8225 14C35.2611 15.5776 35.1336 17.277 35.4532 18.9207C35.7509 19.973 36.2089 20.9732 36.811 21.8862C37.5814 23.052 38.6505 23.9898 39.9068 24.6018C40.4023 24.8994 40.9263 25.1468 41.471 25.3404C42.7636 25.7206 45.4792 26.7199 49.8785 23.7328" fill="white"/>
</svg>
