<svg width="64" height="64" viewBox="0 0 64 64" fill="none" xmlns="http://www.w3.org/2000/svg">
<path d="M32.3812 26.7274C32.4571 27.9958 32.2452 29.265 31.7613 30.4399C31.2774 31.6149 30.534 32.6652 29.5868 33.5122C27.3297 35.2147 24.5355 36.0483 21.7146 35.8608H19.2246V45.6467H13.3857V18.0288H22.1713C24.885 17.8371 27.5797 18.607 29.7825 20.2034C30.6972 21.0107 31.409 22.0219 31.8604 23.1553C32.3119 24.2886 32.4903 25.5123 32.3812 26.7274ZM19.2246 31.0766H21.1166C22.4946 31.1486 23.8582 30.7667 24.9983 29.9893C25.4606 29.6295 25.8245 29.1589 26.0564 28.621C26.2883 28.083 26.3806 27.4953 26.3248 26.9122C26.3828 26.3557 26.3153 25.7933 26.1271 25.2664C25.9389 24.7395 25.6349 24.2615 25.2375 23.8677C24.2288 23.1341 22.9903 22.7869 21.7472 22.8891H19.2246V31.0766Z" fill="white"/>
<path d="M50.6048 39.3621C50.6574 40.3046 50.4812 41.2458 50.0912 42.1054C49.7011 42.965 49.1088 43.7175 48.3649 44.2985C46.3613 45.5503 44.013 46.1364 41.6561 45.973C40.3407 45.9931 39.0263 45.8875 37.7309 45.6577C36.684 45.473 35.6622 45.1664 34.6864 44.7443V40.0254C35.8184 40.5373 36.9891 40.9591 38.1876 41.2866C39.3327 41.5802 40.5071 41.7443 41.6888 41.7759C43.7547 41.7759 44.7985 41.1779 44.7985 39.9927C44.809 39.5901 44.6605 39.1995 44.3853 38.9054C43.9714 38.5171 43.4978 38.1977 42.9827 37.9594L40.2535 36.6982C39.0124 36.2154 37.8363 35.5799 36.7523 34.8062C36.0576 34.2855 35.5013 33.6022 35.1322 32.8164C34.7597 31.9447 34.5816 31.0022 34.6103 30.0546C34.577 29.2052 34.7589 28.3611 35.1391 27.6007C35.5193 26.8404 36.0854 26.1884 36.785 25.7054C38.6332 24.5815 40.7797 24.0468 42.9392 24.1722C45.4845 24.1772 47.9963 24.7532 50.2895 25.8576L48.5824 29.9894C47.6229 29.5681 46.6389 29.205 45.6357 28.9021C44.7311 28.6201 43.7889 28.4771 42.8413 28.478C41.1234 28.478 40.2861 28.9347 40.2861 29.848C40.3029 30.1217 40.3885 30.3867 40.5348 30.6186C40.6811 30.8504 40.8836 31.0417 41.1234 31.1746C42.2307 31.8498 43.4038 32.4108 44.6245 32.849C45.8738 33.3242 47.0663 33.9368 48.1801 34.6757C48.8869 35.1981 49.4606 35.8798 49.8545 36.6655C50.3208 37.4898 50.5783 38.4155 50.6048 39.3621Z" fill="white"/>
</svg>
